<?xml version="1.0" encoding="UTF-8" standalone="no"?>
<svg width="561px" height="86px" viewBox="0 0 561 86" version="1.1" xmlns="http://www.w3.org/2000/svg" xmlns:xlink="http://www.w3.org/1999/xlink">
    <!-- Generator: Sketch 48.2 (47327) - http://www.bohemiancoding.com/sketch -->
    <title>risk_roads_header</title>
    <desc>Created with Sketch.</desc>
    <defs></defs>
    <g id="Page-1" stroke="none" stroke-width="1" fill="none" fill-rule="evenodd">
        <g id="16523---External-Relations_Risky-Roads-2018_Crowdspot-elements" transform="translate(-1367.000000, -786.000000)" fill="#3F4E57">
            <g id="risk_roads_header" transform="translate(1367.000000, 786.000000)">
                <path d="M22.6687333,33.7934881 L26.8514427,33.7934881 C32.5921628,33.7934881 35.0245344,31.1711519 35.0245344,25.9248659 C35.0245344,20.5833689 32.5921628,17.9594191 26.8514427,17.9594191 L22.6687333,17.9594191 L22.6687333,33.7934881 Z M28.1169223,48.1719588 L23.1552076,48.1719588 L23.1552076,71 L0,71 L0,3 L28.9928993,3 C48.9351138,3 57.6916514,10.578148 57.6916514,24.8565665 C57.6916514,32.8220134 54.092388,38.7492999 48.5472273,42.6335849 L61,66.2394513 L61,71 L39.4997748,71 L28.1169223,48.1719588 Z" id="Fill-17-Copy-2"></path>
                <path d="M66.0987728,9.05644089 C66.0987728,3.56400316 70.5583658,0 77,0 C83.439988,0 87.899581,3.56400316 87.899581,9.05644089 C87.899581,14.5472783 83.439988,18.0152598 77,18.0152598 C70.5583658,18.0152598 66.0987728,14.5472783 66.0987728,9.05644089 Z M66,71 L66,20.1341373 L80.5673451,20.1341373 C86.8097875,20.1341373 88,21.8689282 88,30.2500169 L88,71 L66,71 Z" id="Fill-18-Copy"></path>
                <path d="M94.6812053,68.1098546 L94.6812053,55.2746365 L102.279638,55.2746365 C104.032002,56.9273021 108.415339,58.5799677 113.285714,58.5799677 C116.792061,58.5799677 119.617202,58.0936995 119.617202,56.1486268 C119.617202,54.0096931 117.86322,53.815832 110.947611,52.7463651 C100.428571,51.2859451 94,47.9806139 94,36.4071082 C94,24.2520194 104.032002,19 117.279098,19 C126.337025,19 131.401568,20.2649435 136.271943,22.1130856 L136.271943,34.7544426 L129.065082,34.7544426 C126.824062,33.2956381 123.317716,32.0323102 118.350257,32.0323102 C114.259789,32.0323102 112.701593,32.80937 112.701593,34.4636511 C112.701593,36.2132472 114.551041,36.6995153 120.688361,37.4765751 C132.375643,38.8384491 139,41.9499192 139,53.6203554 C139,65.3877221 130.817446,72 114.064003,72 C104.519039,72 98.9674589,70.1518578 94.6812053,68.1098546" id="Fill-19-Copy"></path>
                <path d="M164.670042,37.1936494 L177.787649,19.708719 L196.056412,19.708719 L196.056412,24.3724429 L183.327845,40.4001614 L198,66.5315392 L198,71 L177.011183,71 L167.293241,53.6118943 L164.670042,57.1088803 L164.670042,71 L143,71 L143,3 L157.284729,3 C163.406064,3 164.670042,4.6524752 164.670042,13.6862215 L164.670042,37.1936494" id="Fill-20-Copy"></path>
                <polyline id="Fill-21-Copy" points="211.199029 81.7270079 217.723977 67.9385834 200 23.2729921 200 19 220.841649 19 229.314535 44.8282935 229.607373 44.8282935 237.593274 19 256 19 256 23.2729921 231.749458 86 211.199029 86 211.199029 81.7270079"></polyline>
                <path d="M297.668733,33.7934881 L301.851443,33.7934881 C307.592163,33.7934881 310.024534,31.1711519 310.024534,25.9248659 C310.024534,20.5833689 307.592163,17.9594191 301.851443,17.9594191 L297.668733,17.9594191 L297.668733,33.7934881 Z M303.116922,48.1719588 L298.155208,48.1719588 L298.155208,71 L275,71 L275,3 L303.992899,3 C323.93673,3 332.691651,10.578148 332.691651,24.8565665 C332.691651,32.8220134 329.092388,38.7492999 323.547227,42.6335849 L336,66.2394513 L336,71 L314.499775,71 L303.116922,48.1719588 Z" id="Fill-22-Copy"></path>
                <path d="M374.262481,45.9361941 C374.262481,36.9258078 371.750725,33.1465318 367.499198,33.1465318 C363.249275,33.1465318 360.639617,36.9258078 360.639617,45.9361941 C360.639617,54.9465804 363.249275,58.8224308 367.499198,58.8224308 C371.750725,58.8224308 374.262481,54.9465804 374.262481,45.9361941 Z M339,45.8396198 C339,29.4638302 350.883092,19 367.499198,19 C384.116908,19 396,29.4638302 396,45.8396198 C396,62.1156159 384.116908,72 367.499198,72 C350.883092,72 339,62.1156159 339,45.8396198 Z" id="Fill-23-Copy"></path>
                <path d="M427.775847,58.6768982 L427.775847,50.6058158 C426.533907,50.4119548 425.002922,50.2164782 423.856272,50.2164782 C420.605311,50.2164782 418.790045,51.7722132 418.790045,55.4684976 C418.790045,58.9693053 420.892768,60.2326333 423.378236,60.2326333 C424.907633,60.2326333 426.533907,59.552504 427.775847,58.6768982 Z M428.828796,66.7479806 C425.290379,70.4442649 420.702188,72 414.678303,72 C406.362704,72 399,67.1373183 399,56.8287561 C399,45.9386107 406.743862,41.0759289 418.599466,41.0759289 C422.136296,41.0759289 425.0998,41.26979 427.775847,41.7560582 L427.775847,39.907916 C427.775847,35.726979 425.673125,34.1712439 420.031986,34.1712439 C415.539085,34.1712439 411.714798,35.4345719 409.421497,36.7964459 L402.633707,36.7964459 L402.633707,22.9870759 C407.221898,21.0420032 415.156338,19 424.812343,19 C441.351428,19 449,24.542811 449,38.3521809 L449,71.3198708 L435.041673,71.3198708 C431.409554,71.3198708 429.68799,69.5686591 428.828796,66.7479806 Z" id="Fill-24-Copy"></path>
                <path d="M488.266496,56.8390501 L488.266496,35.3625175 C486.895446,34.6812354 485.426812,34.3906411 483.763011,34.3906411 C479.552277,34.3906411 476.027881,36.4312588 476.027881,45.6640852 C476.027881,55.2843706 478.769981,58.3937295 483.175883,58.3937295 C485.329229,58.3937295 486.700279,57.9077913 488.266496,56.8390501 Z M489.245586,66.1687412 C486.405901,69.2781001 482,72 474.656831,72 C462.714219,72 454,64.3218531 454,45.7609499 C454,25.4500234 465.35711,18.7437529 474.853625,18.7437529 C481.412872,18.7437529 485.230019,20.8828498 488.266496,24.282803 L488.266496,3 L502.559247,3 C508.825743,3 510,4.7500234 510,13.6906411 L510,71.0281235 L494.336199,71.0281235 C491.888476,71.0281235 490.224675,69.9577679 489.245586,66.1687412 Z" id="Fill-25-Copy"></path>
                <path d="M516.68123,68.1098546 L516.68123,55.2746365 L524.279935,55.2746365 C526.032362,56.9273021 530.415858,58.5799677 535.286408,58.5799677 C538.79288,58.5799677 541.616505,58.0936995 541.616505,56.1486268 C541.616505,54.0096931 539.864078,53.815832 532.94822,52.7463651 C522.428803,51.2859451 516,47.9806139 516,36.4071082 C516,24.2520194 526.032362,19 539.279935,19 C548.338188,19 553.402913,20.2649435 558.273463,22.1130856 L558.273463,34.7544426 L551.064725,34.7544426 C548.825243,33.2956381 545.31877,32.0323102 540.351133,32.0323102 C536.2589,32.0323102 534.700647,32.80937 534.700647,34.4636511 C534.700647,36.2132472 536.55178,36.6995153 542.68932,37.4765751 C554.377023,38.8384491 561,41.9499192 561,53.6203554 C561,65.3877221 552.81877,72 536.064725,72 C526.519417,72 520.967638,70.1518578 516.68123,68.1098546" id="Fill-26-Copy"></path>
            </g>
        </g>
    </g>
</svg>